# xmcd CD database file
#
# Track frame offsets:
#	150
#	9548
#	21576
#	40902
#	50990
#	64559
#	77583
#	86728
#	96424
#	107141
#	116455
#	126818
#
# Disc length: 1783 seconds
#
# Revision: 0
# Processed by: cddbd v1.5.2PL0 Copyright (c) Steve Scherf et al.
# Submitted via: CDex 1.51
#
DISCID=a006f50c
DTITLE=BLACK TOP JUKEBOX - THE HITS THAT MAKE THE BIG RIGS ROCK!
DYEAR=1900
DGENRE=Country
TTITLE0=DAVE DUDLEY - SIX DAYS ON THE ROAD
TTITLE1=REX ALLEN JR. - I HONKY TONKED ALL THE WAY
TTITLE2=JOHNNY PAYCHECK - 21 MILES TO LAKE CHARLES
TTITLE3=JOHNNY HORTON - IT'S A LON ROCKY ROAD
TTITLE4=CARL PERKINS - EVERY ROAD
TTITLE5=HOYT AXTON - GOTTA KEEP ROLLIN'
TTITLE6=WILLIE NELSON - MEAN OLD GREYHOUND BUS
TTITLE7=ROY DRUSKY - WRONG ROAD AGAIN
TTITLE8=DAVE DUDLEY - A TRAVELER'S PRAYER
TTITLE9=FARON YOUNG - KING OF THE ROAD
TTITLE10=WAYLON JENNINGS - WHITE LIGHTNIN'
TTITLE11=KITTY WELLS - BIG TRUCK DRIVIN' MAN
EXTD=
EXTT0=
EXTT1=
EXTT2=
EXTT3=
EXTT4=
EXTT5=
EXTT6=
EXTT7=
EXTT8=
EXTT9=
EXTT10=
EXTT11=
PLAYORDER=
